<?xml version="1.0" encoding="utf-8"?>
<!-- Generator: Adobe Illustrator 28.0.0, SVG Export Plug-In . SVG Version: 6.00 Build 0)  -->
<svg version="1.1" id="Capa_1" xmlns="http://www.w3.org/2000/svg" xmlns:xlink="http://www.w3.org/1999/xlink" x="0px" y="0px"
	 viewBox="0 0 1920 686" style="enable-background:new 0 0 1920 686;" xml:space="preserve">
<style type="text/css">
	.st0{fill:#FFFFFF;}
	.st1{fill:#FF9015;}
	.st2{fill:#D11770;}
	.st3{fill:#2C3E4F;}
	.st4{fill-rule:evenodd;clip-rule:evenodd;fill:#FF9015;}
</style>
<rect x="5392" y="-335" class="st0" width="2021" height="1097"/>
<g>
	<g>
	</g>
</g>
<g>
	<rect x="5860.1" y="160.88" class="st1" width="361.6" height="105.23"/>
	<g>
		<rect x="6221.7" y="160.88" class="st2" width="361.6" height="105.23"/>
	</g>
	<g>
		<rect x="6583.3" y="160.88" class="st3" width="361.6" height="105.23"/>
	</g>
</g>
<g>
	<g>
		<circle class="st1" cx="281.59" cy="114.15" r="105.57"/>
		<circle class="st1" cx="544.99" cy="250.13" r="119.54"/>
		<circle class="st1" cx="513.71" cy="538.46" r="81.8"/>
		<g>
			<circle class="st2" cx="282.27" cy="405.2" r="93.69"/>
		</g>
		<circle class="st1" cx="282.97" cy="634.41" r="43.01"/>
		<circle class="st4" cx="70.02" cy="282.94" r="59.02"/>
		<circle class="st4" cx="91.81" cy="515.16" r="34.61"/>
	</g>
	<g>
		<g>
			<path class="st1" d="M866.88,143.74c7.64,4.91,13.58,11.79,17.83,20.66c4.24,8.87,6.37,18.96,6.37,30.28
				c0,16.98-4.48,30.66-13.44,41.04c-8.96,10.38-20.8,15.57-35.52,15.57h-24.06c-0.95,0-1.41,0.47-1.41,1.41v78.68
				c0,0.95-0.33,1.75-0.99,2.4c-0.67,0.67-1.47,0.99-2.41,0.99h-26.04c-0.95,0-1.75-0.33-2.41-0.99c-0.66-0.66-0.99-1.46-0.99-2.4
				V139.78c0-0.94,0.33-1.74,0.99-2.4s1.46-0.99,2.41-0.99h53.21C850.42,136.38,859.24,138.84,866.88,143.74z M851.88,217.46
				c4.24-5.38,6.37-12.68,6.37-21.93c0-9.43-2.12-16.93-6.37-22.5c-4.24-5.56-9.86-8.35-16.84-8.35h-16.98
				c-0.95,0-1.41,0.47-1.41,1.42v58.02c0,0.95,0.47,1.42,1.41,1.42h16.98C842.02,225.53,847.63,222.84,851.88,217.46z"/>
			<path class="st1" d="M977.53,191.15c0.66-0.66,1.46-0.99,2.4-0.99h26.04c0.94,0,1.74,0.33,2.41,0.99
				c0.66,0.66,0.99,1.46,0.99,2.4v137.82c0,0.95-0.33,1.75-0.99,2.4c-0.67,0.67-1.47,0.99-2.41,0.99h-26.04
				c-0.95,0-1.75-0.33-2.4-0.99c-0.67-0.66-0.99-1.46-0.99-2.4v-6.23c0-0.57-0.19-0.94-0.57-1.13c-0.38-0.18-0.76,0-1.13,0.57
				c-5.47,8.12-14.25,12.17-26.32,12.17c-11.51,0-20.8-3.44-27.88-10.33c-7.08-6.89-10.61-17.5-10.61-31.84V193.55
				c0-0.94,0.33-1.74,0.99-2.4c0.66-0.66,1.46-0.99,2.4-0.99h26.04c0.94,0,1.75,0.33,2.41,0.99c0.66,0.66,0.99,1.46,0.99,2.4v93.96
				c0,14.15,5.47,21.23,16.41,21.23c5.47,0,9.72-2.03,12.74-6.08s4.53-9.57,4.53-16.56v-92.54
				C976.54,192.61,976.86,191.81,977.53,191.15z"/>
			<path class="st1" d="M1124.96,200.2c6.32,8.21,9.48,19.86,9.48,34.95v96.22c0,0.95-0.33,1.75-0.99,2.4
				c-0.66,0.67-1.46,0.99-2.4,0.99h-26.04c-0.95,0-1.75-0.33-2.41-0.99c-0.66-0.66-0.99-1.46-0.99-2.4V237.7
				c0-6.79-1.42-12.07-4.25-15.85c-2.83-3.77-6.89-5.66-12.17-5.66c-5.48,0-9.72,1.98-12.74,5.94c-3.02,3.96-4.53,9.44-4.53,16.41
				v92.83c0,0.95-0.33,1.75-0.99,2.4c-0.66,0.67-1.46,0.99-2.4,0.99h-26.04c-0.95,0-1.75-0.33-2.41-0.99
				c-0.66-0.66-0.99-1.46-0.99-2.4V193.55c0-0.94,0.33-1.74,0.99-2.4c0.66-0.66,1.46-0.99,2.41-0.99h26.04
				c0.94,0,1.74,0.33,2.4,0.99c0.66,0.66,0.99,1.46,0.99,2.4v5.66c0,0.57,0.23,0.9,0.71,0.99c0.47,0.1,0.99-0.23,1.56-0.99
				c6.41-7.54,15.37-11.32,26.89-11.32C1109.35,187.89,1118.64,191.99,1124.96,200.2z"/>
			<path class="st1" d="M1218.91,212.37c-0.66,0.67-1.46,0.99-2.4,0.99h-17.55c-0.95,0-1.41,0.47-1.41,1.42v74.15
				c0,6.61,1.23,11.18,3.68,13.73c2.45,2.55,6.13,3.73,11.04,3.54h1.98c0.94,0,1.74,0.33,2.4,0.99c0.66,0.66,0.99,1.47,0.99,2.41
				v21.79c0,0.95-0.33,1.75-0.99,2.4c-0.66,0.67-1.46,0.99-2.4,0.99h-9.62c-12.83,0-22.5-2.36-29.01-7.08
				c-6.51-4.71-9.76-13.58-9.76-26.6v-86.32c0-0.94-0.47-1.42-1.42-1.42h-9.91c-0.95,0-1.75-0.33-2.4-0.99
				c-0.67-0.66-0.99-1.46-0.99-2.4v-16.41c0-0.94,0.33-1.74,0.99-2.4c0.66-0.66,1.46-0.99,2.4-0.99h9.91c0.94,0,1.42-0.47,1.42-1.41
				v-31.13c0-0.94,0.33-1.74,0.99-2.41c0.66-0.66,1.46-0.99,2.41-0.99h24.9c0.94,0,1.74,0.33,2.41,0.99
				c0.66,0.67,0.99,1.47,0.99,2.41v31.13c0,0.95,0.47,1.41,1.41,1.41h17.55c0.94,0,1.74,0.33,2.4,0.99c0.66,0.66,0.99,1.46,0.99,2.4
				v16.41C1219.91,210.91,1219.58,211.71,1218.91,212.37z"/>
			<path class="st1" d="M1250.33,324.57c-8.96-8.3-13.44-19.53-13.44-33.68v-56.88c0-13.96,4.53-25.14,13.58-33.54
				c9.06-8.39,21.32-12.59,36.79-12.59c15.66,0,28.02,4.2,37.07,12.59c9.06,8.4,13.58,19.58,13.58,33.54v56.88
				c0,14.15-4.48,25.38-13.44,33.68c-8.96,8.31-21.37,12.45-37.22,12.45C1271.6,337.03,1259.29,332.88,1250.33,324.57z
				 M1300.13,302.93c3.3-3.68,4.95-8.53,4.95-14.57v-52.07c0-5.85-1.65-10.66-4.95-14.43c-3.3-3.77-7.59-5.66-12.88-5.66
				s-9.53,1.84-12.74,5.52c-3.21,3.68-4.81,8.54-4.81,14.58v52.07c0,6.04,1.6,10.89,4.81,14.57c3.21,3.68,7.45,5.52,12.74,5.52
				S1296.83,306.61,1300.13,302.93z"/>
			<path class="st1" d="M881.88,386.85c-0.67,0.66-1.47,0.99-2.41,0.99h-61.13c-0.95,0-1.41,0.47-1.41,1.42v53.49
				c0,0.95,0.47,1.42,1.41,1.42h36.22c0.95,0,1.75,0.33,2.41,0.99c0.66,0.67,0.99,1.47,0.99,2.41v21.79c0,0.95-0.34,1.75-0.99,2.41
				c-0.66,0.66-1.46,0.99-2.41,0.99h-36.22c-0.95,0-1.41,0.47-1.41,1.42v53.77c0,0.95,0.47,1.41,1.41,1.41h61.13
				c0.94,0,1.74,0.33,2.41,0.99c0.66,0.66,0.99,1.46,0.99,2.4v21.51c0,0.95-0.33,1.75-0.99,2.4c-0.67,0.67-1.47,0.99-2.41,0.99
				H787.5c-0.95,0-1.75-0.33-2.41-0.99c-0.66-0.66-0.99-1.46-0.99-2.4V362.94c0-0.94,0.33-1.74,0.99-2.41
				c0.66-0.66,1.46-0.99,2.41-0.99h91.97c0.94,0,1.74,0.33,2.41,0.99c0.66,0.67,0.99,1.47,0.99,2.41v21.51
				C882.86,385.39,882.53,386.2,881.88,386.85z"/>
			<path class="st1" d="M912.58,548.59c-8.87-7.17-13.3-16.88-13.3-29.15v-1.98c0-0.94,0.33-1.74,0.99-2.41
				c0.66-0.66,1.46-0.99,2.4-0.99h24.34c0.94,0,1.74,0.33,2.4,0.99c0.66,0.67,0.99,1.47,0.99,2.41v1.42c0,4.53,1.74,8.3,5.23,11.32
				s7.78,4.53,12.88,4.53c4.91,0,8.77-1.41,11.6-4.24c2.83-2.83,4.25-6.41,4.25-10.75c0-3.77-1.23-6.93-3.68-9.48
				c-2.45-2.55-5.09-4.48-7.92-5.8c-2.83-1.31-7.92-3.49-15.28-6.51c-10.75-4.15-19.58-9.43-26.46-15.85
				c-6.89-6.41-10.33-15.94-10.33-28.58c0-13.2,4.19-23.54,12.59-30.99c8.39-7.45,19.76-11.18,34.1-11.18
				c14.72,0,26.36,3.92,34.95,11.75c8.58,7.83,12.88,18.35,12.88,31.55c0,0.95-0.33,1.75-0.99,2.41s-1.46,0.99-2.4,0.99h-23.77
				c-0.95,0-1.75-0.33-2.41-0.99c-0.66-0.66-0.99-1.46-0.99-2.41v-1.7c0-4.53-1.55-8.3-4.67-11.32c-3.11-3.01-7.03-4.53-11.74-4.53
				c-4.91,0-8.83,1.56-11.75,4.67c-2.93,3.11-4.39,6.84-4.39,11.18c0,3.59,1.13,6.61,3.4,9.06c2.26,2.45,4.81,4.38,7.64,5.8
				s7.54,3.54,14.15,6.37c7.92,3.21,14.57,6.37,19.95,9.48c5.38,3.11,10.09,7.55,14.15,13.3c4.06,5.76,6.09,12.88,6.09,21.37
				c0,12.64-4.44,22.64-13.3,30c-8.87,7.36-20.85,11.04-35.94,11.04C933.33,559.34,921.45,555.76,912.58,548.59z"/>
			<path class="st1" d="M1076.01,435.24c-0.66,0.67-1.46,0.99-2.4,0.99h-17.55c-0.95,0-1.42,0.47-1.42,1.41v74.15
				c0,6.61,1.23,11.18,3.68,13.73c2.45,2.55,6.13,3.73,11.04,3.54h1.98c0.94,0,1.74,0.33,2.4,0.99c0.66,0.66,0.99,1.47,0.99,2.41
				v21.79c0,0.95-0.33,1.75-0.99,2.4c-0.66,0.67-1.46,0.99-2.4,0.99h-9.62c-12.83,0-22.5-2.36-29.01-7.08
				c-6.51-4.71-9.76-13.58-9.76-26.6v-86.32c0-0.94-0.47-1.41-1.41-1.41h-9.91c-0.95,0-1.75-0.33-2.4-0.99
				c-0.67-0.66-0.99-1.46-0.99-2.4v-16.41c0-0.94,0.33-1.74,0.99-2.4c0.66-0.66,1.46-0.99,2.4-0.99h9.91c0.94,0,1.41-0.47,1.41-1.42
				v-31.13c0-0.94,0.33-1.74,0.99-2.41c0.66-0.66,1.46-0.99,2.41-0.99h24.9c0.94,0,1.74,0.33,2.41,0.99
				c0.66,0.67,0.99,1.47,0.99,2.41v31.13c0,0.95,0.47,1.42,1.42,1.42h17.55c0.94,0,1.74,0.33,2.4,0.99c0.66,0.66,0.99,1.46,0.99,2.4
				v16.41C1077,433.79,1076.67,434.59,1076.01,435.24z"/>
			<path class="st1" d="M1167.28,414.16c1.51,0.95,2.07,2.36,1.7,4.24l-4.53,26.32c-0.19,2.26-1.51,2.93-3.96,1.98
				c-2.65-0.75-5.09-1.13-7.36-1.13c-2.27,0-4.34,0.28-6.23,0.85c-5.28,0.75-9.58,3.73-12.88,8.91c-3.3,5.19-4.95,11.37-4.95,18.54
				v80.09c0,0.95-0.33,1.75-0.99,2.41c-0.66,0.66-1.46,0.99-2.4,0.99h-26.04c-0.95,0-1.75-0.33-2.41-0.99
				c-0.66-0.66-0.99-1.46-0.99-2.41V416.43c0-0.94,0.33-1.74,0.99-2.4c0.66-0.66,1.46-0.99,2.41-0.99h26.04
				c0.94,0,1.74,0.33,2.4,0.99c0.66,0.66,0.99,1.46,0.99,2.4v13.02c0,0.75,0.18,1.18,0.57,1.27c0.38,0.1,0.66-0.23,0.85-0.99
				c5.09-12.26,13.39-18.4,24.91-18.4C1160.49,411.33,1164.45,412.28,1167.28,414.16z"/>
			<path class="st1" d="M1269.15,423.79c9.24,8.68,13.87,20.09,13.87,34.24v96.22c0,0.95-0.33,1.75-0.99,2.4
				c-0.66,0.67-1.46,0.99-2.4,0.99h-26.04c-0.95,0-1.75-0.33-2.41-0.99c-0.66-0.66-0.99-1.46-0.99-2.4v-5.38
				c0-0.57-0.19-0.94-0.57-1.13c-0.38-0.18-0.75,0-1.13,0.57c-6.61,7.74-16.23,11.6-28.87,11.6c-10.76,0-20.24-3.06-28.44-9.2
				c-8.21-6.13-12.31-17.31-12.31-33.54c0-16.98,4.95-29.05,14.86-36.22c9.91-7.17,23.35-10.75,40.33-10.75h14.72
				c0.94,0,1.42-0.47,1.42-1.42v-7.36c0-6.79-1.7-12.21-5.09-16.27c-3.4-4.05-7.64-6.08-12.73-6.08c-3.96,0-7.27,1.27-9.91,3.82
				c-2.65,2.55-4.24,5.99-4.81,10.33c-0.19,2.26-1.42,3.4-3.68,3.4h-27.45c-2.26,0-3.3-1.13-3.11-3.4
				c0.94-12.83,5.99-23.11,15.14-30.85c9.15-7.74,20.61-11.6,34.38-11.6C1247.83,410.77,1259.9,415.11,1269.15,423.79z
				 M1243.68,527.36c4.34-3.58,6.51-8.58,6.51-15v-16.13c0-0.94-0.47-1.42-1.42-1.42h-14.72c-6.41,0-11.6,1.75-15.57,5.24
				c-3.96,3.49-5.94,8.54-5.94,15.14c0,5.85,1.51,10.24,4.53,13.16c3.02,2.93,6.89,4.38,11.6,4.38
				C1234.34,532.74,1239.34,530.94,1243.68,527.36z"/>
			<path class="st1" d="M1366.07,435.24c-0.66,0.67-1.46,0.99-2.4,0.99h-17.55c-0.95,0-1.42,0.47-1.42,1.41v74.15
				c0,6.61,1.23,11.18,3.68,13.73c2.45,2.55,6.13,3.73,11.04,3.54h1.98c0.94,0,1.74,0.33,2.4,0.99c0.66,0.66,0.99,1.47,0.99,2.41
				v21.79c0,0.95-0.33,1.75-0.99,2.4c-0.66,0.67-1.46,0.99-2.4,0.99h-9.62c-12.83,0-22.5-2.36-29.01-7.08
				c-6.51-4.71-9.76-13.58-9.76-26.6v-86.32c0-0.94-0.47-1.41-1.42-1.41h-9.91c-0.95,0-1.75-0.33-2.4-0.99
				c-0.67-0.66-0.99-1.46-0.99-2.4v-16.41c0-0.94,0.33-1.74,0.99-2.4c0.66-0.66,1.46-0.99,2.4-0.99h9.91c0.94,0,1.42-0.47,1.42-1.42
				v-31.13c0-0.94,0.33-1.74,0.99-2.41c0.66-0.66,1.46-0.99,2.41-0.99h24.9c0.94,0,1.74,0.33,2.41,0.99
				c0.66,0.67,0.99,1.47,0.99,2.41v31.13c0,0.95,0.47,1.42,1.42,1.42h17.55c0.94,0,1.74,0.33,2.4,0.99c0.66,0.66,0.99,1.46,0.99,2.4
				v16.41C1367.07,433.79,1366.74,434.59,1366.07,435.24z"/>
			<path class="st1" d="M1483.24,496.37c-0.66,0.66-1.46,0.99-2.4,0.99h-62.55c-0.95,0-1.42,0.47-1.42,1.42v12.74
				c0,5.85,1.6,10.66,4.81,14.43c3.21,3.78,7.36,5.66,12.45,5.66c4.34,0,8.06-1.37,11.18-4.1s5.14-6.27,6.08-10.61
				c0.57-1.88,1.79-2.83,3.68-2.83l25.19,1.13c0.94,0,1.75,0.33,2.41,0.99c0.66,0.66,0.89,1.56,0.71,2.69
				c-1.32,13.21-6.13,23.35-14.43,30.42c-8.3,7.08-19.91,10.61-34.81,10.61c-15.47,0-27.69-4.1-36.65-12.31
				c-8.96-8.21-13.44-19.38-13.44-33.53v-57.45c0-13.77,4.48-24.85,13.44-33.25c8.96-8.39,21.17-12.59,36.65-12.59
				c15.47,0,27.68,4.2,36.65,12.59c8.96,8.4,13.44,19.48,13.44,33.25v37.36C1484.23,494.91,1483.9,495.71,1483.24,496.37z
				 M1421.68,444.73c-3.21,3.78-4.81,8.59-4.81,14.43v12.74c0,0.94,0.47,1.41,1.42,1.41h31.98c0.94,0,1.42-0.47,1.42-1.41v-12.74
				c0-6.04-1.6-10.9-4.81-14.58c-3.21-3.68-7.46-5.52-12.74-5.52C1429.04,439.07,1424.89,440.95,1421.68,444.73z M1417.72,393.79
				c-0.57-0.75-0.47-1.7,0.28-2.83l16.7-29.15c0.75-1.51,2.17-2.26,4.25-2.26h20.38c1.51,0,2.45,0.42,2.83,1.27
				c0.38,0.85,0.19,1.84-0.57,2.97l-20.94,29.15c-0.95,1.32-2.27,1.98-3.96,1.98h-16.13
				C1419.23,394.92,1418.29,394.54,1417.72,393.79z"/>
			<path class="st1" d="M1572.66,414.02c0.66-0.66,1.46-0.99,2.41-0.99h26.04c0.94,0,1.74,0.33,2.41,0.99
				c0.66,0.66,0.99,1.46,0.99,2.4v135.84c0,20.38-4.63,36.08-13.87,47.12c-9.25,11.04-25.75,16.56-49.53,16.56
				c-4.15,0-7.26-0.1-9.34-0.28c-2.26-0.19-3.4-1.41-3.4-3.68v-21.79c0-2.45,1.23-3.49,3.68-3.11c10.75,0.19,19.01-1.13,24.76-3.96
				c5.75-2.83,9.67-6.98,11.74-12.45c2.08-5.48,3.11-12.64,3.11-21.51v-3.11c0-0.57-0.19-0.89-0.57-0.99
				c-0.38-0.09-0.76,0.14-1.13,0.71c-6.23,8.11-15.1,12.17-26.6,12.17c-12.64,0-22.26-4.11-28.87-12.31
				c-6.61-8.21-9.91-19.38-9.91-33.53v-55.47c0-14.53,3.34-25.8,10.05-33.82c6.69-8.02,16.27-12.03,28.72-12.03
				c11.5,0,20.38,4.06,26.6,12.17c0.38,0.57,0.75,0.8,1.13,0.71c0.37-0.09,0.57-0.43,0.57-0.99v-6.23
				C1571.67,415.48,1571.99,414.68,1572.66,414.02z M1567,524.11c3.11-3.68,4.67-8.44,4.67-14.29v-50.66
				c0-6.04-1.56-10.9-4.67-14.58c-3.11-3.68-7.21-5.52-12.31-5.52s-9.25,1.89-12.45,5.66c-3.21,3.78-4.81,8.59-4.81,14.43v50.66
				c0,5.85,1.6,10.61,4.81,14.29c3.21,3.68,7.36,5.52,12.45,5.52S1563.89,527.78,1567,524.11z"/>
			<path class="st1" d="M1632.8,387.56c-3.78-3.77-5.66-8.58-5.66-14.43c0-5.84,1.88-10.65,5.66-14.43
				c3.77-3.77,8.58-5.66,14.43-5.66c5.84,0,10.61,1.89,14.29,5.66c3.68,3.78,5.52,8.59,5.52,14.43c0,5.85-1.89,10.66-5.66,14.43
				c-3.78,3.78-8.49,5.66-14.15,5.66C1641.38,393.22,1636.57,391.34,1632.8,387.56z M1632.09,556.65c-0.67-0.66-0.99-1.46-0.99-2.4
				V416.43c0-0.94,0.33-1.74,0.99-2.4c0.66-0.66,1.46-0.99,2.4-0.99h26.04c0.94,0,1.74,0.33,2.41,0.99c0.66,0.66,0.99,1.46,0.99,2.4
				v137.82c0,0.95-0.33,1.75-0.99,2.4c-0.67,0.67-1.47,0.99-2.41,0.99h-26.04C1633.55,557.64,1632.75,557.32,1632.09,556.65z"/>
			<path class="st1" d="M1701.99,547.45c-8.96-8.3-13.44-19.53-13.44-33.68v-57.17c0-13.77,4.48-24.85,13.44-33.25
				c8.96-8.39,21.17-12.59,36.65-12.59c15.47,0,27.73,4.1,36.79,12.31c9.06,8.21,13.58,18.63,13.58,31.27v3.96
				c0,0.95-0.33,1.75-0.99,2.4c-0.67,0.67-1.47,0.99-2.41,0.99l-26.04,1.13c-2.27,0-3.4-1.13-3.4-3.4v-2.83
				c0-4.71-1.65-8.82-4.95-12.31c-3.3-3.49-7.5-5.24-12.59-5.24c-5.09,0-9.25,1.89-12.45,5.66c-3.21,3.78-4.81,8.59-4.81,14.43
				v52.35c0,5.85,1.6,10.66,4.81,14.43c3.21,3.78,7.36,5.66,12.45,5.66c5.09,0,9.29-1.74,12.59-5.24c3.3-3.49,4.95-7.68,4.95-12.59
				v-2.83c0-0.94,0.33-1.74,0.99-2.4c0.66-0.66,1.46-0.99,2.4-0.99l26.04,0.28c0.94,0,1.74,0.33,2.41,0.99
				c0.66,0.67,0.99,1.47,0.99,2.41v5.09c0,13.02-4.53,23.54-13.58,31.55c-9.06,8.02-21.32,12.03-36.79,12.03
				C1723.16,559.91,1710.95,555.76,1701.99,547.45z"/>
			<path class="st1" d="M1821.41,547.45c-8.96-8.3-13.44-19.53-13.44-33.68V456.9c0-13.96,4.53-25.14,13.58-33.54
				c9.06-8.39,21.32-12.59,36.79-12.59c15.66,0,28.02,4.2,37.07,12.59c9.06,8.4,13.58,19.58,13.58,33.54v56.88
				c0,14.15-4.48,25.38-13.44,33.68c-8.96,8.31-21.37,12.45-37.22,12.45C1842.68,559.91,1830.37,555.76,1821.41,547.45z
				 M1871.22,525.8c3.3-3.68,4.95-8.53,4.95-14.57v-52.07c0-5.85-1.65-10.66-4.95-14.43c-3.3-3.77-7.59-5.66-12.88-5.66
				s-9.53,1.84-12.73,5.52c-3.21,3.68-4.81,8.54-4.81,14.58v52.07c0,6.04,1.6,10.89,4.81,14.57c3.21,3.68,7.45,5.52,12.73,5.52
				S1867.91,529.48,1871.22,525.8z"/>
		</g>
	</g>
</g>
</svg>
